<svg width="185" height="74" viewBox="0 0 185 74" fill="none" xmlns="http://www.w3.org/2000/svg">
<path fill-rule="evenodd" clip-rule="evenodd" d="M17.1934 18.8318C14.3726 21.8848 12.3016 25.5527 11.1443 29.545C9.98713 33.5373 9.77552 37.7442 10.5263 41.8324C11.2771 45.9207 12.9696 49.7779 15.4698 53.0985C17.97 56.4192 21.2091 59.1119 24.9305 60.9635C28.652 62.815 32.7535 63.7745 36.9101 63.7659C41.0667 63.7572 45.1642 62.7807 48.8779 60.9137C52.5916 59.0467 55.8195 56.3405 58.3059 53.0096C60.7923 49.6786 62.4687 45.8143 63.2025 41.723C63.2518 41.4611 63.2413 41.1916 63.172 40.9343C63.1026 40.6771 62.9762 40.4388 62.802 40.2371C62.6278 40.0355 62.4104 39.8758 62.166 39.7698C61.9215 39.6638 61.6563 39.6143 61.3901 39.625L54.0387 39.9163C53.6453 39.9315 53.267 40.0719 52.9587 40.3169C52.6505 40.5619 52.4285 40.8988 52.3249 41.2787C51.6768 43.6234 50.5045 45.7903 48.8966 47.6157C47.2886 49.4412 45.287 50.8775 43.0428 51.8164C40.7986 52.7552 38.3705 53.172 35.9417 53.0353C33.5129 52.8985 31.1468 52.2119 29.0222 51.0271C26.8975 49.8424 25.0698 48.1904 23.6769 46.1961C22.2839 44.2017 21.3622 41.9169 20.9814 39.5143C20.6005 37.1116 20.7704 34.6538 21.4782 32.3264C22.186 29.999 23.4132 27.8628 25.0673 26.079C27.926 23.0236 31.8598 21.1981 36.0387 20.9876C40.2177 20.777 44.315 22.198 47.4663 24.9506C49.4833 26.7238 51.0204 28.9771 51.9354 31.502C52.0699 31.8714 52.3182 32.1885 52.6445 32.4077C52.9708 32.6268 53.3582 32.7368 53.751 32.7217L61.1023 32.4303C61.3673 32.4181 61.6261 32.3465 61.8596 32.2208C62.0931 32.0951 62.2954 31.9185 62.4514 31.7041C62.6075 31.4897 62.7134 31.2429 62.7612 30.9821C62.809 30.7212 62.7975 30.4529 62.7277 30.1971C61.5087 25.5542 59.0637 21.3245 55.6488 17.9511C52.2338 14.5776 47.9746 12.1845 43.3171 11.0224C38.6597 9.86025 33.7755 9.97191 29.176 11.3456C24.5766 12.7194 20.4311 15.3046 17.1739 18.8306L17.1934 18.8318Z" fill="#000AF3"/>
<path fill-rule="evenodd" clip-rule="evenodd" d="M46.3219 34.5703C46.4231 34.571 46.5231 34.5491 46.6147 34.5063C46.7064 34.4635 46.7873 34.4008 46.8517 34.3227C46.916 34.2447 46.9622 34.1533 46.9868 34.0552C47.0115 33.9571 47.0139 33.8548 46.994 33.7556C46.5654 31.7495 45.5638 29.9109 44.1106 28.463C40.0371 24.3896 33.4818 24.3081 29.4898 28.3001C27.9994 29.786 27.0158 31.7043 26.6791 33.7818C26.664 33.8795 26.6702 33.9793 26.6973 34.0743C26.7245 34.1693 26.7719 34.2574 26.8363 34.3323C26.9008 34.4073 26.9807 34.4673 27.0706 34.5084C27.1605 34.5495 27.2582 34.5706 27.357 34.5703L46.3219 34.5703Z" fill="#000AF3"/>
<path d="M75.1855 38.4669C75.1855 34.9942 75.961 31.8925 77.5119 29.1616C79.0965 26.397 81.2373 24.2561 83.9345 22.7389C86.6654 21.188 89.7166 20.4126 93.0881 20.4126C97.0327 20.4126 100.488 21.4241 103.455 23.4469C106.422 25.4698 108.496 28.2681 109.676 31.8419H101.534C100.724 30.1562 99.5782 28.8919 98.0947 28.049C96.645 27.2061 94.9592 26.7847 93.0375 26.7847C90.9809 26.7847 89.1435 27.2736 87.5251 28.2513C85.9406 29.1953 84.6931 30.5439 83.7828 32.2971C82.9062 34.0502 82.4679 36.1068 82.4679 38.4669C82.4679 40.7932 82.9062 42.8498 83.7828 44.6367C84.6931 46.3898 85.9406 47.7553 87.5251 48.733C89.1435 49.677 90.9809 50.149 93.0375 50.149C94.9592 50.149 96.645 49.7276 98.0947 48.8847C99.5782 48.0081 100.724 46.727 101.534 45.0412H109.676C108.496 48.6487 106.422 51.4639 103.455 53.4868C100.522 55.4759 97.0664 56.4705 93.0881 56.4705C89.7166 56.4705 86.6654 55.7119 83.9345 54.1948C81.2373 52.6439 79.0965 50.503 77.5119 47.7721C75.961 45.0412 75.1855 41.9395 75.1855 38.4669Z" fill="black"/>
<path d="M118.555 24.8124C117.308 24.8124 116.262 24.4247 115.42 23.6492C114.61 22.8401 114.206 21.8455 114.206 20.6655C114.206 19.4855 114.61 18.5077 115.42 17.7323C116.262 16.9231 117.308 16.5186 118.555 16.5186C119.803 16.5186 120.831 16.9231 121.64 17.7323C122.483 18.5077 122.904 19.4855 122.904 20.6655C122.904 21.8455 122.483 22.8401 121.64 23.6492C120.831 24.4247 119.803 24.8124 118.555 24.8124ZM122.045 28.1501V56.1671H114.964V28.1501H122.045Z" fill="black"/>
<path d="M135.361 32.4993C136.272 31.0159 137.452 29.8527 138.901 29.0099C140.385 28.167 142.07 27.7456 143.958 27.7456V35.1797H142.087C139.862 35.1797 138.176 35.7022 137.03 36.7474C135.918 37.7926 135.361 39.6132 135.361 42.2092V56.1671H128.281V28.1501H135.361V32.4993Z" fill="black"/>
<path d="M146.148 42.1586C146.148 39.2592 146.738 36.7305 147.918 34.5728C149.098 32.3813 150.733 30.6956 152.824 29.5156C154.914 28.3019 157.308 27.695 160.005 27.695C163.477 27.695 166.343 28.5716 168.602 30.3247C170.895 32.0442 172.429 34.4717 173.204 37.6071H165.568C165.163 36.3934 164.472 35.4494 163.494 34.7751C162.55 34.0671 161.37 33.7131 159.954 33.7131C157.931 33.7131 156.33 34.4548 155.15 35.9383C153.97 37.388 153.38 39.4614 153.38 42.1586C153.38 44.8221 153.97 46.8955 155.15 48.379C156.33 49.8287 157.931 50.5536 159.954 50.5536C162.82 50.5536 164.691 49.2724 165.568 46.7101H173.204C172.429 49.7444 170.895 52.155 168.602 53.9419C166.31 55.7288 163.444 56.6222 160.005 56.6222C157.308 56.6222 154.914 56.0322 152.824 54.8522C150.733 53.6385 149.098 51.9528 147.918 49.795C146.738 47.6036 146.148 45.0581 146.148 42.1586Z" fill="black"/>
<path d="M184.713 18.7437V56.1671H177.632V18.7437H184.713Z" fill="black"/>
</svg>
