<svg width="74" height="74" viewBox="0 0 74 74" fill="none" xmlns="http://www.w3.org/2000/svg">
<path fill-rule="evenodd" clip-rule="evenodd" d="M17.1934 18.8318C14.3726 21.8848 12.3016 25.5527 11.1443 29.545C9.98713 33.5373 9.77552 37.7442 10.5263 41.8324C11.2771 45.9207 12.9696 49.7779 15.4698 53.0985C17.97 56.4192 21.2091 59.1119 24.9305 60.9635C28.652 62.815 32.7535 63.7745 36.9101 63.7659C41.0667 63.7572 45.1642 62.7807 48.8779 60.9137C52.5916 59.0467 55.8195 56.3405 58.3059 53.0096C60.7923 49.6786 62.4687 45.8143 63.2025 41.723C63.2518 41.4611 63.2413 41.1916 63.172 40.9343C63.1026 40.6771 62.9762 40.4388 62.802 40.2371C62.6278 40.0355 62.4104 39.8758 62.166 39.7698C61.9215 39.6638 61.6563 39.6143 61.3901 39.625L54.0387 39.9163C53.6453 39.9315 53.267 40.0719 52.9587 40.3169C52.6505 40.5619 52.4285 40.8988 52.3249 41.2787C51.6768 43.6234 50.5045 45.7903 48.8966 47.6157C47.2886 49.4412 45.287 50.8775 43.0428 51.8164C40.7986 52.7552 38.3705 53.172 35.9417 53.0353C33.5129 52.8985 31.1468 52.2119 29.0222 51.0271C26.8975 49.8424 25.0698 48.1904 23.6769 46.1961C22.2839 44.2017 21.3622 41.9169 20.9814 39.5143C20.6005 37.1116 20.7704 34.6538 21.4782 32.3264C22.186 29.999 23.4132 27.8628 25.0673 26.079C27.926 23.0236 31.8598 21.1981 36.0387 20.9876C40.2177 20.777 44.315 22.198 47.4663 24.9506C49.4833 26.7238 51.0204 28.9771 51.9354 31.502C52.0699 31.8714 52.3182 32.1885 52.6445 32.4077C52.9708 32.6268 53.3582 32.7368 53.751 32.7217L61.1023 32.4303C61.3673 32.4181 61.6261 32.3465 61.8596 32.2208C62.0931 32.0951 62.2954 31.9185 62.4514 31.7041C62.6075 31.4897 62.7134 31.2429 62.7612 30.9821C62.809 30.7212 62.7975 30.4529 62.7277 30.1971C61.5087 25.5542 59.0637 21.3245 55.6488 17.9511C52.2338 14.5776 47.9746 12.1845 43.3171 11.0224C38.6597 9.86025 33.7755 9.97191 29.176 11.3456C24.5766 12.7194 20.4311 15.3046 17.1739 18.8306L17.1934 18.8318Z" fill="black"/>
<path fill-rule="evenodd" clip-rule="evenodd" d="M46.3219 34.5703C46.4231 34.571 46.5231 34.5491 46.6147 34.5063C46.7064 34.4635 46.7873 34.4008 46.8517 34.3227C46.916 34.2447 46.9622 34.1533 46.9868 34.0552C47.0115 33.9571 47.0139 33.8548 46.994 33.7556C46.5654 31.7495 45.5638 29.9109 44.1106 28.463C40.0371 24.3896 33.4818 24.3081 29.4898 28.3001C27.9994 29.786 27.0158 31.7043 26.6791 33.7818C26.664 33.8795 26.6702 33.9793 26.6973 34.0743C26.7245 34.1693 26.7719 34.2574 26.8363 34.3323C26.9008 34.4073 26.9807 34.4673 27.0706 34.5084C27.1605 34.5495 27.2582 34.5706 27.357 34.5703L46.3219 34.5703Z" fill="black"/>
</svg>
