<svg width="74" height="74" viewBox="0 0 74 74" fill="none" xmlns="http://www.w3.org/2000/svg">
<path fill-rule="evenodd" clip-rule="evenodd" d="M16.9053 18.3953C14.0845 21.4483 12.0135 25.1162 10.8563 29.1085C9.69904 33.1007 9.48743 37.3077 10.2382 41.3959C10.989 45.4842 12.6815 49.3414 15.1817 52.662C17.6819 55.9826 20.921 58.6754 24.6424 60.527C28.3639 62.3785 32.4654 63.338 36.622 63.3293C40.7786 63.3207 44.8761 62.3442 48.5898 60.4772C52.3035 58.6102 55.5315 55.904 58.0178 52.573C60.5042 49.242 62.1807 45.3778 62.9144 41.2865C62.9637 41.0246 62.9532 40.755 62.8839 40.4978C62.8146 40.2405 62.6881 40.0022 62.5139 39.8006C62.3397 39.599 62.1223 39.4392 61.8779 39.3332C61.6334 39.2273 61.3682 39.1778 61.102 39.1885L53.7507 39.4798C53.3572 39.495 52.9789 39.6353 52.6707 39.8803C52.3624 40.1253 52.1404 40.4623 52.0368 40.8421C51.3887 43.1869 50.2164 45.3537 48.6085 47.1792C47.0005 49.0047 44.9989 50.441 42.7547 51.3798C40.5105 52.3187 38.0824 52.7355 35.6536 52.5987C33.2248 52.462 30.8588 51.7754 28.7341 50.5906C26.6095 49.4058 24.7817 47.7539 23.3888 45.7595C21.9958 43.7651 21.0742 41.4804 20.6933 39.0778C20.3124 36.6751 20.4823 34.2173 21.1901 31.8899C21.8979 29.5625 23.1251 27.4263 24.7792 25.6425C27.6379 22.5871 31.5717 20.7616 35.7506 20.551C39.9296 20.3405 44.0269 21.7615 47.1782 24.5141C49.1952 26.2873 50.7323 28.5406 51.6473 31.0655C51.7818 31.4349 52.0301 31.7519 52.3564 31.9711C52.6827 32.1903 53.0702 32.3003 53.4629 32.2851L60.8143 31.9938C61.0792 31.9816 61.338 31.91 61.5715 31.7843C61.805 31.6586 62.0073 31.482 62.1634 31.2676C62.3194 31.0532 62.4253 30.8064 62.4731 30.5455C62.5209 30.2847 62.5094 30.0164 62.4396 29.7606C61.2206 25.1177 58.7756 20.888 55.3607 17.5145C51.9457 14.1411 47.6865 11.7479 43.0291 10.5858C38.3716 9.42372 33.4874 9.53539 28.8879 10.9091C24.2885 12.2829 20.143 14.8681 16.8858 18.3941L16.9053 18.3953Z" fill="#000AF3"/>
<path fill-rule="evenodd" clip-rule="evenodd" d="M46.0338 34.1338C46.135 34.1345 46.235 34.1126 46.3266 34.0698C46.4183 34.0269 46.4992 33.9642 46.5636 33.8862C46.6279 33.8082 46.6741 33.7168 46.6987 33.6187C46.7234 33.5206 46.7258 33.4183 46.706 33.3191C46.2773 31.313 45.2757 29.4744 43.8225 28.0265C39.7491 23.953 33.1937 23.8716 29.2017 27.8636C27.7113 29.3495 26.7278 31.2678 26.391 33.3453C26.3759 33.4429 26.3821 33.5427 26.4092 33.6378C26.4364 33.7328 26.4838 33.8208 26.5482 33.8958C26.6127 33.9707 26.6926 34.0308 26.7825 34.0719C26.8724 34.113 26.9701 34.1341 27.069 34.1338L46.0338 34.1338Z" fill="#000AF3"/>
</svg>
